<mxfile host="app.diagrams.net" modified="2023-03-19T10:14:01.848Z" agent="5.0 (Macintosh; Intel Mac OS X 10_15_7) AppleWebKit/537.36 (KHTML, like Gecko) Chrome/109.0.0.0 Safari/537.36" etag="TSrr4vl5aq5HxDhM1paC" version="21.0.8" type="github">
  <diagram name="第 1 页" id="Ex3h1K5YblFa5OqzhXCe">
    <mxGraphModel dx="1378" dy="803" grid="1" gridSize="10" guides="1" tooltips="1" connect="1" arrows="1" fold="1" page="1" pageScale="1" pageWidth="827" pageHeight="1169" math="0" shadow="0">
      <root>
        <mxCell id="0" />
        <mxCell id="1" parent="0" />
        <mxCell id="KklP4WUCVsEFxCcORyuM-19" style="edgeStyle=orthogonalEdgeStyle;rounded=0;orthogonalLoop=1;jettySize=auto;html=1;exitX=0.75;exitY=0;exitDx=0;exitDy=0;entryX=0;entryY=0.5;entryDx=0;entryDy=0;endArrow=none;endFill=0;" edge="1" parent="1" source="KklP4WUCVsEFxCcORyuM-1" target="KklP4WUCVsEFxCcORyuM-17">
          <mxGeometry relative="1" as="geometry" />
        </mxCell>
        <mxCell id="KklP4WUCVsEFxCcORyuM-25" style="edgeStyle=orthogonalEdgeStyle;rounded=0;orthogonalLoop=1;jettySize=auto;html=1;entryX=0;entryY=0.5;entryDx=0;entryDy=0;endArrow=none;endFill=0;" edge="1" parent="1" source="KklP4WUCVsEFxCcORyuM-1" target="KklP4WUCVsEFxCcORyuM-24">
          <mxGeometry relative="1" as="geometry" />
        </mxCell>
        <mxCell id="KklP4WUCVsEFxCcORyuM-1" value="Game" style="rounded=0;whiteSpace=wrap;html=1;" vertex="1" parent="1">
          <mxGeometry x="80" y="200" width="120" height="40" as="geometry" />
        </mxCell>
        <mxCell id="KklP4WUCVsEFxCcORyuM-22" style="edgeStyle=orthogonalEdgeStyle;rounded=0;orthogonalLoop=1;jettySize=auto;html=1;entryX=1;entryY=0.5;entryDx=0;entryDy=0;exitX=0.5;exitY=0;exitDx=0;exitDy=0;endArrow=none;endFill=0;" edge="1" parent="1" source="KklP4WUCVsEFxCcORyuM-2" target="KklP4WUCVsEFxCcORyuM-21">
          <mxGeometry relative="1" as="geometry" />
        </mxCell>
        <mxCell id="KklP4WUCVsEFxCcORyuM-28" style="edgeStyle=orthogonalEdgeStyle;rounded=0;orthogonalLoop=1;jettySize=auto;html=1;entryX=1;entryY=0.5;entryDx=0;entryDy=0;exitX=0.5;exitY=1;exitDx=0;exitDy=0;endArrow=none;endFill=0;" edge="1" parent="1" source="KklP4WUCVsEFxCcORyuM-2" target="KklP4WUCVsEFxCcORyuM-27">
          <mxGeometry relative="1" as="geometry" />
        </mxCell>
        <mxCell id="KklP4WUCVsEFxCcORyuM-2" value="Content Platforms" style="rounded=0;whiteSpace=wrap;html=1;" vertex="1" parent="1">
          <mxGeometry x="400" y="200" width="120" height="40" as="geometry" />
        </mxCell>
        <mxCell id="KklP4WUCVsEFxCcORyuM-20" style="edgeStyle=orthogonalEdgeStyle;rounded=0;orthogonalLoop=1;jettySize=auto;html=1;entryX=0.25;entryY=0;entryDx=0;entryDy=0;" edge="1" parent="1" source="KklP4WUCVsEFxCcORyuM-17" target="KklP4WUCVsEFxCcORyuM-2">
          <mxGeometry relative="1" as="geometry" />
        </mxCell>
        <mxCell id="KklP4WUCVsEFxCcORyuM-17" value="2. Players consume&lt;br&gt;game contents" style="rounded=0;whiteSpace=wrap;html=1;fillColor=#3B4E98;fontColor=#FFFFFF;" vertex="1" parent="1">
          <mxGeometry x="240" y="120" width="120" height="40" as="geometry" />
        </mxCell>
        <mxCell id="KklP4WUCVsEFxCcORyuM-23" style="edgeStyle=orthogonalEdgeStyle;rounded=0;orthogonalLoop=1;jettySize=auto;html=1;entryX=0.5;entryY=0;entryDx=0;entryDy=0;" edge="1" parent="1" source="KklP4WUCVsEFxCcORyuM-21" target="KklP4WUCVsEFxCcORyuM-1">
          <mxGeometry relative="1" as="geometry" />
        </mxCell>
        <mxCell id="KklP4WUCVsEFxCcORyuM-21" value="3. Players become&lt;br&gt;loyal to the game" style="rounded=0;whiteSpace=wrap;html=1;fillColor=#3B4E98;fontColor=#FFFFFF;" vertex="1" parent="1">
          <mxGeometry x="240" y="40" width="120" height="40" as="geometry" />
        </mxCell>
        <mxCell id="KklP4WUCVsEFxCcORyuM-26" style="edgeStyle=orthogonalEdgeStyle;rounded=0;orthogonalLoop=1;jettySize=auto;html=1;entryX=0;entryY=0.5;entryDx=0;entryDy=0;" edge="1" parent="1" source="KklP4WUCVsEFxCcORyuM-24" target="KklP4WUCVsEFxCcORyuM-2">
          <mxGeometry relative="1" as="geometry" />
        </mxCell>
        <mxCell id="KklP4WUCVsEFxCcORyuM-24" value="1. Creators create&lt;br&gt;game contents" style="rounded=0;whiteSpace=wrap;html=1;fillColor=#FF6554;" vertex="1" parent="1">
          <mxGeometry x="240" y="200" width="120" height="40" as="geometry" />
        </mxCell>
        <mxCell id="KklP4WUCVsEFxCcORyuM-29" style="edgeStyle=orthogonalEdgeStyle;rounded=0;orthogonalLoop=1;jettySize=auto;html=1;entryX=0.5;entryY=1;entryDx=0;entryDy=0;" edge="1" parent="1" source="KklP4WUCVsEFxCcORyuM-27" target="KklP4WUCVsEFxCcORyuM-1">
          <mxGeometry relative="1" as="geometry" />
        </mxCell>
        <mxCell id="KklP4WUCVsEFxCcORyuM-27" value="4. Non-players&lt;br&gt;become new players" style="rounded=0;whiteSpace=wrap;html=1;fillColor=#B9CEF3;" vertex="1" parent="1">
          <mxGeometry x="240" y="280" width="120" height="40" as="geometry" />
        </mxCell>
      </root>
    </mxGraphModel>
  </diagram>
</mxfile>
